<?xml version="1.0" standalone="no"?>
<!DOCTYPE svg PUBLIC "-//W3C//DTD SVG 20010904//EN"
 "http://www.w3.org/TR/2001/REC-SVG-20010904/DTD/svg10.dtd">
<svg version="1.0" xmlns="http://www.w3.org/2000/svg"
 width="229.000000pt" height="229.000000pt" viewBox="0 0 229.000000 229.000000"
 preserveAspectRatio="xMidYMid meet">
<metadata>
Created by potrace 1.15, written by Peter Selinger 2001-2017
</metadata>
<g transform="translate(0.000000,229.000000) scale(0.100000,-0.100000)"
fill="#000000" stroke="none">
<path d="M1100 2195 c-278 -13 -547 -28 -599 -33 -85 -8 -97 -12 -118 -36 -19
-22 -23 -39 -23 -90 0 -72 45 -523 95 -941 42 -360 49 -425 47 -451 -1 -12
-22 -86 -47 -165 -69 -219 -79 -260 -63 -271 29 -19 63 -20 107 -4 61 21 61
21 61 -18 0 -59 15 -84 58 -97 32 -9 49 -8 97 5 31 10 71 19 89 21 82 11 930
244 1167 321 160 52 189 74 125 97 -10 3 -65 286 -96 492 -48 319 -181 1082
-195 1112 -18 41 -76 71 -147 77 -29 3 -280 -6 -558 -19z m625 -19 c22 -10 40
-27 49 -48 14 -31 282 -1596 274 -1603 -9 -9 -1360 -396 -1365 -391 -11 11
-43 240 -93 681 -28 242 -62 522 -75 621 -45 330 -74 620 -66 650 4 16 18 34
32 41 23 11 190 20 844 48 165 7 315 13 333 14 18 0 48 -6 67 -13z"/>
<path d="M1225 2120 c-698 -32 -713 -33 -724 -63 -9 -25 -10 -19 29 -347 16
-135 39 -333 50 -440 12 -107 30 -267 40 -355 11 -88 34 -281 51 -430 32 -278
39 -315 61 -315 12 -1 1279 370 1287 376 2 2 -4 34 -12 71 -9 37 -30 156 -47
263 -65 409 -92 579 -115 710 -13 74 -36 215 -51 314 -20 127 -33 185 -47 202
-18 24 -21 24 -190 22 -95 0 -244 -4 -332 -8z m481 -28 c6 -4 16 -16 22 -28 6
-11 52 -267 102 -570 50 -302 104 -628 120 -724 17 -97 30 -182 30 -191 0 -11
-29 -24 -97 -43 -54 -16 -104 -31 -110 -33 -8 -3 -13 4 -13 20 0 54 -61 375
-80 427 -24 60 -26 52 31 93 24 17 69 87 69 107 0 9 -18 46 -40 83 -39 64 -40
68 -29 114 16 74 3 159 -31 197 -35 38 -48 28 -31 -22 24 -66 24 -68 -8 -19
-23 35 -37 47 -56 47 -31 0 -31 -6 1 -66 l27 -49 -43 43 c-41 41 -90 57 -90
30 0 -7 25 -36 56 -63 l56 -51 -48 2 c-45 2 -49 4 -70 45 -31 60 -126 173
-176 209 -23 17 -53 30 -69 30 -44 0 -90 -64 -140 -195 -43 -111 -45 -115 -75
-115 -16 0 -35 -5 -42 -12 -23 -23 -12 3 23 55 39 58 45 87 17 87 -22 0 -42
-20 -72 -75 -15 -28 -20 -32 -16 -15 17 80 18 110 4 110 -29 0 -50 -27 -64
-81 l-14 -54 3 63 c2 34 2 62 1 62 -2 0 -15 -20 -29 -45 -25 -42 -26 -48 -16
-97 7 -29 22 -71 35 -95 l24 -42 -29 -73 c-29 -76 -37 -155 -20 -201 11 -27
56 -47 108 -47 28 0 33 -3 29 -17 -2 -10 -23 -86 -45 -169 -22 -83 -57 -194
-76 -248 -33 -92 -44 -167 -27 -192 11 -17 48 -34 74 -34 13 -1 -12 -12 -55
-26 -44 -14 -80 -24 -82 -22 -5 5 -53 335 -60 413 -10 107 -50 456 -104 905
-69 574 -65 519 -39 529 21 7 193 17 698 40 227 11 453 12 466 3z m-113 -758
c56 -29 97 -66 122 -109 36 -61 33 -91 -15 -137 -23 -21 -44 -38 -48 -38 -4 0
-34 62 -65 138 -32 75 -61 143 -64 150 -8 18 32 15 70 -4z m-556 -28 c-3 -8
-20 -94 -38 -190 l-33 -176 -37 0 c-21 0 -47 8 -60 19 -21 17 -24 28 -24 83 1
75 30 140 97 213 50 55 108 86 95 51z m549 -201 c13 -17 94 -262 94 -282 0 -6
6 -16 14 -23 8 -6 12 -18 10 -25 -3 -8 1 -48 10 -90 9 -43 16 -103 16 -136 l0
-58 -69 -21 c-81 -24 -81 -24 -81 -6 0 7 -7 19 -15 26 -24 20 -18 26 23 23
l37 -3 -35 17 c-56 28 -277 25 -348 -4 -93 -38 -194 -104 -265 -175 -51 -50
-76 -68 -96 -68 -65 0 -66 38 -5 207 25 70 62 193 83 273 37 141 39 145 67
150 37 7 38 24 1 28 -24 3 -26 6 -21 30 4 15 7 28 8 28 10 12 125 76 167 94
54 22 57 22 83 5 39 -26 153 -17 203 17 31 20 44 23 73 17 19 -4 40 -15 46
-24z m-64 -615 c50 -51 80 -37 -357 -166 -121 -35 -226 -67 -232 -69 -24 -8
129 130 185 167 109 73 178 96 295 97 74 1 80 -1 109 -29z"/>
<path d="M1571 1045 c3 -16 -10 -27 -65 -55 -64 -31 -79 -35 -173 -38 -90 -4
-104 -2 -109 13 -5 13 -9 14 -15 3 -17 -26 -8 -33 51 -36 55 -3 138 -34 230
-87 31 -18 119 -19 143 -1 9 7 17 22 17 34 0 25 -38 72 -74 91 -24 13 -25 16
-10 32 9 10 22 15 30 12 21 -8 17 11 -7 33 -21 19 -21 19 -18 -1z"/>
</g>
</svg>
